<svg xmlns="http://www.w3.org/2000/svg" viewBox="0 0 272 272"><defs><style>.cls-1{fill:none;}.cls-2{fill:#ff9700;}.cls-3{fill:#ff003d;}.cls-4{fill:#ceff00;}.cls-5{fill:#00b7ff;}</style></defs><title>coutinued</title><g id="圖層_2" data-name="圖層 2"><g id="圖層_1-2" data-name="圖層 1"><rect class="cls-1" width="272" height="272"/><polygon class="cls-2" points="125.42 205.93 153 205.8 150.72 221.37 137.9 221.36 136.95 226.94 147.74 227.35 146.87 237.8 136.49 236.79 135.61 242.78 156.5 244.83 154.04 265.69 114.99 258.57 125.42 205.93"/><path class="cls-3" d="M239.73,205l-35.79,10.08L221.46,271l34.79-13.3,12.3-34Zm5.84,37.62L234.34,248l-11.87-21.44,16.86-4.56,11,6.29Z"/><polygon class="cls-4" points="8.92 208.27 9.74 245.85 24.18 265 45.37 265.08 57.76 248.61 63.09 207.1 36.36 208.24 41.44 238.81 25 240.04 24.81 207.41 8.92 208.27"/><polygon class="cls-3" points="56.97 9.86 34.27 0.85 1.32 24.66 15.63 68.57 35.48 74.32 58.4 55.49 47.46 44.08 34.1 52.6 26.37 32.44 33.08 23.29 49.16 26.92 56.97 9.86"/><polygon class="cls-4" points="195.52 55.98 210.81 11.04 226.72 16.16 236.41 39.84 243.67 10.64 266.25 15.32 252.17 62.59 222.5 57.03 216.65 36.81 211.29 59.88 195.52 55.98"/><polygon class="cls-5" points="190.26 166.83 204.39 125.31 219.1 130.04 228.05 151.92 234.75 124.94 255.62 129.27 242.61 172.93 215.19 167.8 209.79 149.12 204.83 170.45 190.26 166.83"/><path class="cls-5" d="M147.21,16.14,132,11,104.75,26.35,114,67.07l26.58-1.59L162.89,46ZM134,48.16l-9.89-.39-1.29-15.62,10.33-5.67L143.63,41Z"/><polygon class="cls-2" points="16 109.76 16.03 129.21 28.12 128.85 26.2 164.91 44.91 165.29 39.06 127.5 55.23 126.2 52.32 107.67 16 109.76"/><polygon class="cls-3" points="119.23 109.93 126.54 94.33 160.31 111.14 153.87 125.75 147.39 122.93 129.25 161.25 135.27 164.49 130.17 173.63 103.02 162.95 107.03 151.58 112.88 154.32 128.35 113.95 119.23 109.93"/></g></g></svg>