<svg xmlns="http://www.w3.org/2000/svg" viewBox="0 0 272 272"><defs><style>.cls-1{fill:#00b7ff;}.cls-2{fill:#ff003d;}.cls-3{fill:#ff9700;}.cls-4{fill:none;}</style></defs><title>end</title><g id="圖層_2" data-name="圖層 2"><g id="圖層_1-2" data-name="圖層 1"><polygon class="cls-1" points="18.23 3.84 61.56 3.64 57.98 28.1 37.83 28.08 36.34 36.85 53.3 37.49 51.93 53.91 35.62 52.33 34.24 61.73 67.06 64.95 63.2 97.72 1.85 86.54 18.23 3.84"/><path class="cls-2" d="M231.38,180l-49.89,14L205.91,272l48.49-18.55L271.54,206Zm8.14,52.44L223.86,240l-16.54-29.89,23.51-6.35,15.34,8.77Z"/><polygon class="cls-3" points="79.37 163.67 101 100.13 123.5 107.37 137.2 140.86 147.46 99.57 179.4 106.19 159.48 173.01 117.52 165.16 109.26 136.57 101.67 169.21 79.37 163.67"/><rect class="cls-4" width="272" height="272"/></g></g></svg>